<svg width="99" height="99" viewBox="0 0 99 99" fill="none" xmlns="http://www.w3.org/2000/svg">
<path d="M90.6104 36.2433C90.4155 36.1854 90.2111 36.1666 90.0089 36.188C89.8067 36.2093 89.6107 36.2704 89.4322 36.3677C89.2537 36.465 89.0962 36.5967 88.9686 36.755C88.8411 36.9134 88.7461 37.0953 88.6892 37.2905C87.5191 41.0178 85.8443 44.5673 83.7113 47.8402C82.1892 50.2765 79.0614 54.4407 77.1526 55.2466C76.9036 55.3559 76.6875 55.5283 76.5258 55.7469C76.3641 55.9654 76.2623 56.2224 76.2305 56.4924C76.1988 56.7625 76.2382 57.0361 76.3449 57.2862C76.4515 57.5362 76.6217 57.7541 76.8386 57.9181C78.156 59.0039 79.2908 60.2938 80.1999 61.7389C80.4281 62.0727 80.778 62.3039 81.1746 62.383C81.5712 62.462 81.983 62.3826 82.3218 62.1618C82.6605 61.9409 82.8993 61.5962 82.987 61.2014C83.0747 60.8066 83.0043 60.3932 82.7909 60.0497C82.053 58.9136 81.2088 57.8502 80.2695 56.8739C82.613 54.6933 84.6526 52.2074 86.3333 49.483C88.6167 45.9715 90.4071 42.1631 91.6545 38.1645C91.7702 37.7715 91.7252 37.3486 91.5294 36.9887C91.3337 36.6288 91.0032 36.3598 90.6104 36.2433ZM37.2881 70.1616C32.7619 74.4542 26.0299 78.2873 20.0404 81.6982C18.6405 82.5026 17.7881 82.8475 17.0302 82.5057C15.2621 81.2248 16.6527 79.8729 18.4935 78.4528C21.9608 75.7095 24.9776 72.4406 27.4345 68.7648C28.252 67.6769 28.8547 66.4432 29.2103 65.1296C29.5568 62.6917 29.6898 60.0791 32.038 58.659C32.2458 58.5192 32.4169 58.3313 32.5366 58.1112C32.6564 57.8911 32.7213 57.6454 32.7258 57.395C32.7304 57.1445 32.6745 56.8966 32.5628 56.6723C32.4511 56.448 32.287 56.254 32.0844 56.1067C28.0911 53.5039 24.6974 50.0812 22.1287 46.0659C22.0283 45.8856 21.8928 45.7273 21.7302 45.6002C21.5676 45.473 21.3813 45.3797 21.1821 45.3257C20.9829 45.2717 20.775 45.2581 20.5704 45.2857C20.3659 45.3133 20.169 45.3816 19.9913 45.4864C19.8135 45.5913 19.6586 45.7307 19.5355 45.8963C19.4125 46.062 19.3238 46.2506 19.2748 46.4511C19.2257 46.6515 19.2173 46.8598 19.25 47.0635C19.2826 47.2673 19.3557 47.4625 19.465 47.6376C21.8674 51.4909 25.0086 54.8308 28.7075 57.4648C26.8513 59.3134 26.48 61.9461 26.2016 64.4134C24.2556 69.1051 20.3977 72.8037 16.4609 76.1171C15.0409 77.2416 13.098 78.7808 13.1413 81.3285C13.1731 82.5026 13.6605 83.6183 14.5003 84.4394C15.3402 85.2605 16.4666 85.7226 17.6412 85.7278C19.048 85.6318 20.4049 85.1683 21.5764 84.3836C27.7485 80.8783 34.7326 76.8658 39.4104 72.4108C39.6947 72.1261 39.8569 71.7419 39.8627 71.3396C39.8684 70.9373 39.7171 70.5486 39.441 70.256C39.1649 69.9633 38.7856 69.7898 38.3837 69.7722C37.9817 69.7546 37.5887 69.8942 37.2881 70.1616Z" fill="white"/>
<path d="M92.7821 29.304C92.5037 24.8087 91.2012 20.1155 86.5683 18.5903C68.6369 12.4585 48.7085 26.8924 36.3676 39.5474C35.97 39.9372 36.0798 40.0748 35.3667 39.9418C33.6153 39.6183 31.984 38.8271 30.6456 37.652C29.3072 36.477 28.3114 34.9618 27.7638 33.2671C31.5454 31.4565 34.6544 28.4921 36.6429 24.801C38.7033 20.6043 38.4543 13.7671 34.7897 10.2712C34.5335 10.0374 34.2064 9.896 33.8605 9.86953C33.5147 9.84305 33.1699 9.93302 32.881 10.1251C32.5922 10.3172 32.3759 10.6004 32.2665 10.9296C32.1572 11.2588 32.1611 11.6151 32.2776 11.9418C32.3633 12.5918 32.2725 13.2529 32.0148 13.8558C31.7571 14.4586 31.3419 14.981 30.8127 15.3682C28.1521 16.5361 24.0653 16.5051 22.144 18.9337C18.7873 15.6698 11.848 16.2777 9.75203 11.8212C9.63495 11.5162 9.42486 11.2558 9.15153 11.0769C8.87819 10.8979 8.55548 10.8096 8.22912 10.8243C7.90277 10.839 7.58932 10.9561 7.3332 11.1589C7.07708 11.3617 6.89128 11.6399 6.80213 11.9542C5.73174 16.1057 6.15311 20.5013 7.99271 24.3739C9.83231 28.2465 12.9733 31.3502 16.8677 33.1433C16.4113 34.7799 15.576 43.3094 18.8121 42.6195C19.2112 42.5254 19.5566 42.2767 19.7724 41.928C19.9882 41.5794 20.0567 41.1593 19.9629 40.7601C19.2867 38.1169 19.3687 35.3367 20.1996 32.738C20.3313 32.3539 20.3066 31.9334 20.1309 31.5673C19.9553 31.2012 19.6427 30.9189 19.2607 30.7812C16.2827 29.694 13.7207 27.7004 11.935 25.0809C10.1494 22.4615 9.23011 19.348 9.30653 16.1787C12.6091 19.0513 18.7285 18.8548 21.0937 22.4126C21.2567 22.6746 21.494 22.8822 21.7754 23.0089C22.0567 23.1356 22.3694 23.1758 22.6736 23.1242C22.9779 23.0726 23.2599 22.9316 23.4837 22.7192C23.7076 22.5068 23.8632 22.2327 23.9307 21.9316C24.3762 20.2006 26.828 19.5911 28.4769 19.2833C30.7416 18.8656 33.2986 18.1525 34.4788 15.8338C36.134 22.9834 32.0549 27.7231 25.3028 31.0442C25.0003 31.1901 24.7535 31.4306 24.5997 31.7292C24.446 32.0278 24.3936 32.3683 24.4504 32.6994C24.9326 35.2715 26.1882 37.6353 28.0496 39.4748C29.911 41.3144 32.2894 42.542 34.8671 42.9938C35.5595 43.1468 36.2811 43.1013 36.9488 42.8624C37.6166 42.6235 38.2033 42.201 38.6415 41.6434C45.1581 34.6457 52.873 28.869 61.4223 24.586C68.558 21.2416 75.7061 19.1116 82.7939 20.6291C81.0738 20.6719 79.3579 20.8175 77.6552 21.0653C71.595 21.8038 65.932 24.4683 61.4996 28.6666C54.6826 34.3359 54.7212 46.7063 45.9149 50.8009C45.5957 50.9305 45.329 51.163 45.1569 51.4614C44.9849 51.7598 44.9174 52.1072 44.9651 52.4483C45.4503 57.1886 44.1087 61.9355 41.2139 65.7205C40.9765 66.0549 40.8816 66.4699 40.95 66.8742C41.0185 67.2786 41.2447 67.6392 41.579 67.8768C43.3811 69.0308 44.3556 66.5218 45.1229 65.3183C51.9477 66.6084 62.3334 66.6208 69.3315 63.377C69.1613 76.5254 79.9585 89.4991 81.3538 89.1479C81.647 89.1473 81.934 89.0636 82.1815 88.9064C82.429 88.7493 82.6269 88.5251 82.7522 88.26C86.5458 81.5218 87.5582 73.5686 85.5737 66.0948C85.4522 65.7064 85.1827 65.3815 84.8233 65.1905C84.464 64.9995 84.0439 64.9578 83.654 65.0744C83.2642 65.191 82.9359 65.4565 82.7405 65.8134C82.545 66.1703 82.4981 66.5899 82.6098 66.9812C84.2342 72.9092 83.6561 79.2249 80.9825 84.7594C77.9012 80.8598 71.2542 71.1191 72.6016 61.1154C72.6352 60.8389 72.5941 60.5584 72.4824 60.3031C72.3708 60.0479 72.1927 59.8273 71.9668 59.6642C71.7409 59.5012 71.4754 59.4017 71.198 59.3762C70.9206 59.3507 70.6414 59.4 70.3895 59.5191C67.4559 60.9486 64.3381 61.9643 61.1253 62.537C70.3137 57.5143 82.7351 47.4859 89.5878 28.2768C89.7165 29.3701 89.7512 30.4725 89.6914 31.5717C89.6833 31.9765 89.8343 32.3684 90.1118 32.6631C90.3894 32.9579 90.7715 33.1321 91.1761 33.1483C91.5807 33.1645 91.9755 33.0214 92.2758 32.7498C92.576 32.4782 92.7578 32.0996 92.7821 31.6954C92.8099 30.987 92.8316 30.1486 92.7821 29.304ZM48.1532 53.1676C57.8366 47.7396 57.0601 35.4296 65.2771 29.4122C68.2852 27.0991 71.7672 25.4791 75.4741 24.668C73.4498 31.5901 69.957 37.9944 65.2337 43.4446C60.5104 48.8948 54.6677 53.2626 48.1037 56.2505C48.2056 55.226 48.2222 54.1948 48.1532 53.1676ZM52.6608 63.0119C50.6215 62.8966 48.5881 62.6943 46.5661 62.4055C46.8951 61.601 47.1776 60.7783 47.4122 59.9414C55.0777 56.8044 61.909 51.9283 67.3668 45.6983C72.8245 39.4682 76.7592 32.0547 78.8602 24.043C81.8169 23.6675 84.8058 23.6177 87.7733 23.8945C79.711 50.4265 60.8329 60.0264 52.6608 63.0119Z" fill="white"/>
<path d="M48.1607 42.7448C48.1607 42.2037 47.9458 41.6847 47.5631 41.3021C47.1805 40.9194 46.6615 40.7045 46.1204 40.7045C45.5793 40.7045 45.0603 40.9194 44.6777 41.3021C44.295 41.6847 44.0801 42.2037 44.0801 42.7448C44.0801 43.2859 44.295 43.8049 44.6777 44.1875C45.0603 44.5702 45.5793 44.7851 46.1204 44.7851C46.6615 44.7851 47.1805 44.5702 47.5631 44.1875C47.9458 43.8049 48.1607 43.2859 48.1607 42.7448Z" fill="white"/>
</svg>
