<svg width="139" height="127" viewBox="0 0 139 127" fill="none" xmlns="http://www.w3.org/2000/svg">
<path d="M134.692 42.4767C134.382 42.385 134.058 42.3552 133.738 42.389C133.417 42.4229 133.106 42.5198 132.823 42.6741C132.54 42.8284 132.29 43.0371 132.088 43.2883C131.886 43.5394 131.735 43.828 131.645 44.1375C129.789 50.0484 127.133 55.6775 123.751 60.8678C121.337 64.7315 116.376 71.3353 113.349 72.6134C112.955 72.7866 112.612 73.0601 112.355 73.4066C112.099 73.7532 111.937 74.1608 111.887 74.589C111.837 75.0172 111.899 75.4512 112.068 75.8478C112.238 76.2443 112.507 76.5898 112.851 76.8499C114.941 78.5718 116.74 80.6175 118.182 82.9091C118.544 83.4386 119.099 83.8052 119.728 83.9306C120.357 84.056 121.01 83.93 121.547 83.5798C122.084 83.2295 122.463 82.6828 122.602 82.0568C122.741 81.4307 122.629 80.7751 122.291 80.2303C121.121 78.4286 119.782 76.7422 118.292 75.194C122.009 71.7359 125.243 67.7935 127.909 63.473C131.53 57.9042 134.369 51.8647 136.347 45.5235C136.531 44.9002 136.459 44.2296 136.149 43.6589C135.839 43.0882 135.314 42.6614 134.692 42.4767ZM50.1299 96.2664C42.952 103.074 32.276 109.153 22.7775 114.562C20.5574 115.837 19.2058 116.384 18.0037 115.842C15.1998 113.811 17.4052 111.667 20.3244 109.415C25.823 105.065 30.6072 99.8806 34.5034 94.0512C35.8 92.326 36.7558 90.3695 37.3196 88.2864C37.8691 84.4202 38.0801 80.2769 41.8039 78.0249C42.1336 77.8032 42.4049 77.5051 42.5948 77.1562C42.7847 76.8072 42.8876 76.4175 42.8948 76.0203C42.9021 75.623 42.8134 75.2299 42.6363 74.8743C42.4592 74.5186 42.1989 74.2109 41.8775 73.9773C35.5448 69.8496 30.1629 64.4217 26.0892 58.0541C25.93 57.7682 25.7151 57.517 25.4573 57.3154C25.1995 57.1138 24.904 56.9658 24.5881 56.8802C24.2722 56.7946 23.9424 56.773 23.6181 56.8168C23.2938 56.8605 22.9815 56.9688 22.6996 57.1351C22.4177 57.3014 22.172 57.5224 21.9769 57.7851C21.7817 58.0478 21.6411 58.3469 21.5633 58.6648C21.4856 58.9827 21.4722 59.313 21.524 59.6361C21.5758 59.9593 21.6917 60.2688 21.865 60.5464C25.6749 66.6573 30.6564 71.9539 36.5224 76.1311C33.5786 79.0626 32.9899 83.2378 32.5483 87.1506C29.4623 94.5909 23.3442 100.456 17.101 105.711C14.849 107.494 11.7679 109.935 11.8366 113.975C11.8869 115.838 12.6598 117.607 13.9918 118.909C15.3237 120.211 17.11 120.944 18.9727 120.952C21.2037 120.8 23.3556 120.065 25.2135 118.82C35.0014 113.262 46.0773 106.898 53.4955 99.8332C53.9465 99.3818 54.2037 98.7724 54.2128 98.1345C54.2219 97.4965 53.982 96.8801 53.5441 96.416C53.1062 95.952 52.5048 95.6768 51.8673 95.6488C51.2299 95.6209 50.6067 95.8424 50.1299 96.2664Z" fill="#2E527D"/>
<path d="M138.138 31.472C137.697 24.3432 135.631 16.9004 128.284 14.4816C99.8474 4.75745 68.2438 27.6476 48.6727 47.7166C48.0423 48.3348 48.2165 48.5531 47.0856 48.3421C44.3081 47.829 41.7211 46.5743 39.5985 44.7108C37.4759 42.8474 35.8969 40.4446 35.0285 37.7569C41.0255 34.8857 45.956 30.1845 49.1094 24.3309C52.377 17.6756 51.982 6.8328 46.1706 1.28873C45.7642 0.917939 45.2455 0.693709 44.697 0.651724C44.1485 0.60974 43.6017 0.752414 43.1436 1.05704C42.6855 1.36167 42.3425 1.81075 42.1691 2.33282C41.9957 2.85489 42.0019 3.41996 42.1867 3.93811C42.3226 4.96893 42.1786 6.01733 41.7699 6.97336C41.3611 7.92939 40.7027 8.75783 39.8636 9.37178C35.6442 11.2239 29.163 11.1748 26.1163 15.0262C20.793 9.85014 9.78825 10.8142 6.46427 3.74677C6.2786 3.2631 5.94543 2.85012 5.51196 2.56637C5.07849 2.28263 4.56672 2.14249 4.04916 2.16583C3.53161 2.18917 3.03452 2.3748 2.62835 2.69642C2.22219 3.01803 1.92753 3.45932 1.78616 3.95773C0.0886597 10.5415 0.756891 17.5123 3.67424 23.6536C6.59159 29.795 11.5728 34.717 17.7486 37.5606C17.025 40.1561 15.7003 53.6826 20.8322 52.5885C21.4651 52.4393 22.0129 52.0448 22.3551 51.4919C22.6973 50.939 22.8061 50.2729 22.6573 49.6398C21.5849 45.4481 21.715 41.0391 23.0327 36.9179C23.2415 36.3088 23.2023 35.6419 22.9237 35.0613C22.6452 34.4808 22.1495 34.033 21.5436 33.8147C16.821 32.0906 12.758 28.929 9.9262 24.7749C7.09444 20.6207 5.63658 15.6832 5.75777 10.6572C10.9952 15.2127 20.6998 14.9011 24.4506 20.5433C24.7091 20.9588 25.0854 21.288 25.5316 21.489C25.9778 21.6899 26.4737 21.7535 26.9561 21.6717C27.4386 21.5899 27.8858 21.3664 28.2408 21.0295C28.5958 20.6927 28.8426 20.2579 28.9496 19.7804C29.6561 17.0353 33.5443 16.0688 36.1594 15.5806C39.7507 14.9183 43.8057 13.7874 45.6775 10.1102C48.3023 21.4485 41.8334 28.9649 31.1255 34.2318C30.6458 34.4632 30.2545 34.8445 30.0106 35.3181C29.7668 35.7916 29.6837 36.3316 29.7739 36.8566C30.5385 40.9357 32.5298 44.6843 35.4816 47.6016C38.4335 50.5188 42.2054 52.4657 46.2932 53.1821C47.3913 53.4249 48.5357 53.3526 49.5946 52.9738C50.6535 52.5949 51.5839 51.9248 52.2788 51.0406C62.6133 39.9432 74.8481 30.7822 88.406 23.99C99.7223 18.6863 111.058 15.3083 122.298 17.7149C119.571 17.7827 116.849 18.0137 114.149 18.4066C104.538 19.5778 95.5577 23.8034 88.5287 30.4613C77.7177 39.452 77.7791 59.0696 63.8134 65.5631C63.3073 65.7687 62.8843 66.1373 62.6115 66.6106C62.3386 67.0838 62.2315 67.6346 62.3072 68.1756C63.0767 75.6931 60.9491 83.221 56.3584 89.2235C55.9819 89.7538 55.8313 90.4119 55.9399 91.0531C56.0485 91.6944 56.4072 92.2663 56.9373 92.6431C59.7952 94.4732 61.3407 90.4942 62.5574 88.5857C73.3806 90.6316 89.8509 90.6512 100.949 85.507C100.679 106.359 117.802 126.933 120.015 126.376C120.479 126.375 120.935 126.242 121.327 125.993C121.72 125.744 122.034 125.388 122.232 124.968C128.248 114.282 129.854 101.669 126.707 89.8171C126.514 89.2012 126.087 88.6859 125.517 88.383C124.947 88.0801 124.281 88.0139 123.662 88.1988C123.044 88.3837 122.524 88.8048 122.214 89.3708C121.904 89.9369 121.829 90.6022 122.006 91.2228C124.583 100.624 123.666 110.64 119.426 119.417C114.539 113.232 103.998 97.7849 106.135 81.9205C106.188 81.4819 106.123 81.0371 105.946 80.6323C105.769 80.2275 105.486 79.8776 105.128 79.6191C104.77 79.3605 104.349 79.2028 103.909 79.1623C103.469 79.1218 103.026 79.2001 102.627 79.3889C97.9744 81.656 93.03 83.2667 87.935 84.1749C102.507 76.2096 122.205 60.306 133.073 29.8431C133.277 31.5769 133.332 33.3251 133.237 35.0683C133.224 35.7103 133.463 36.3317 133.904 36.7992C134.344 37.2667 134.95 37.5429 135.591 37.5686C136.233 37.5943 136.859 37.3674 137.335 36.9366C137.811 36.5058 138.1 35.9055 138.138 35.2645C138.182 34.141 138.217 32.8114 138.138 31.472ZM67.3631 69.3163C82.7197 60.7083 81.4882 41.1864 94.5192 31.6437C99.2896 27.9754 104.812 25.4063 110.69 24.12C107.48 35.0975 101.941 45.2539 94.4503 53.897C86.9599 62.5402 77.6942 69.467 67.2846 74.2054C67.4462 72.5807 67.4725 70.9454 67.3631 69.3163ZM74.5115 84.928C71.2775 84.7452 68.0528 84.4244 64.8462 83.9664C65.368 82.6906 65.816 81.3858 66.1881 80.0586C78.3444 75.0837 89.1779 67.351 97.8331 57.471C106.488 47.591 112.728 35.8342 116.06 23.1289C120.749 22.5333 125.489 22.4543 130.195 22.8934C117.409 64.9694 87.4714 80.1935 74.5115 84.928Z" fill="#2E527D"/>
<path d="M67.3752 52.7872C67.3752 51.929 67.0342 51.106 66.4274 50.4992C65.8206 49.8924 64.9976 49.5515 64.1395 49.5515C63.2813 49.5515 62.4583 49.8924 61.8515 50.4992C61.2447 51.106 60.9038 51.929 60.9038 52.7872C60.9038 53.6453 61.2447 54.4683 61.8515 55.0752C62.4583 55.682 63.2813 56.0229 64.1395 56.0229C64.9976 56.0229 65.8206 55.682 66.4274 55.0752C67.0342 54.4683 67.3752 53.6453 67.3752 52.7872Z" fill="#2E527D"/>
</svg>
